<svg width="65" height="13" viewBox="0 0 65 13" fill="none" xmlns="http://www.w3.org/2000/svg">
<path d="M0.75 9H0V8.25V7.5V6.75V6V5.25V4.5V3.75H0.75H1.5H2.25H3H3.75H4.5V4.5H5.25V5.25V6V6.75H4.5V7.5H3.75H3H2.25H1.5V8.25V9H0.75ZM3 6H3.75V5.25H3H2.25H1.5V6H2.25H3ZM6.75 9H6V8.25V7.5V6.75V6V5.25V4.5V3.75H6.75H7.5V4.5V5.25V6V6.75V7.5V8.25V9H6.75ZM12.75 9H12V8.25H11.25V7.5H10.5V8.25H9.75V9H9H8.25V8.25V7.5H9V6.75H9.75V6H9V5.25H8.25V4.5V3.75H9H9.75V4.5H10.5V5.25H11.25V4.5H12V3.75H12.75H13.5V4.5V5.25H12.75V6H12V6.75H12.75V7.5H13.5V8.25V9H12.75ZM18.75 9H18H17.25H16.5H15.75H15H14.25V8.25V7.5V6.75V6V5.25V4.5V3.75H15H15.75H16.5H17.25H18H18.75H19.5V4.5V5.25H18.75H18H17.25H16.5H15.75V6H16.5H17.25H18V6.75H17.25H16.5H15.75V7.5H16.5H17.25H18H18.75H19.5V8.25V9H18.75ZM24.75 9H24H23.25H22.5H21.75H21H20.25V8.25V7.5V6.75V6V5.25V4.5V3.75H21H21.75V4.5V5.25V6V6.75V7.5H22.5H23.25H24H24.75H25.5V8.25V9H24.75ZM30.75 9H30V8.25V7.5V6.75V6V5.25V4.5V3.75H30.75H31.5H32.25H33H33.75H34.5V4.5H35.25V5.25V6V6.75H34.5V7.5H33.75H33H32.25H31.5V8.25V9H30.75ZM33 6H33.75V5.25H33H32.25H31.5V6H32.25H33ZM40.5 9H39.75V8.25V7.5H39H38.25H37.5V8.25V9H36.75H36V8.25V7.5V6.75V6V5.25V4.5V3.75H36.75H37.5H38.25H39H39.75H40.5V4.5H41.25V5.25V6V6.75H40.5V7.5H41.25V8.25V9H40.5ZM39 6H39.75V5.25H39H38.25H37.5V6H38.25H39ZM46.5 9H45.75V8.25V7.5H45H44.25H43.5V8.25V9H42.75H42V8.25V7.5V6.75V6V5.25V4.5H42.75V3.75H43.5H44.25H45H45.75H46.5V4.5H47.25V5.25V6V6.75V7.5V8.25V9H46.5ZM45 6H45.75V5.25H45H44.25H43.5V6H44.25H45ZM48.75 9H48V8.25V7.5V6.75V6V5.25V4.5V3.75H48.75H49.5V4.5V5.25V6V6.75V7.5V8.25V9H48.75ZM54.75 9H54V8.25V7.5H53.25H52.5H51.75V8.25V9H51H50.25V8.25V7.5V6.75V6V5.25V4.5V3.75H51H51.75H52.5H53.25H54H54.75V4.5H55.5V5.25V6V6.75H54.75V7.5H55.5V8.25V9H54.75ZM53.25 6H54V5.25H53.25H52.5H51.75V6H52.5H53.25ZM57 9H56.25V8.25V7.5V6.75V6V5.25V4.5V3.75H57H57.75V4.5V5.25V6V6.75V7.5V8.25V9H57ZM63 9H62.25H61.5H60.75H60H59.25H58.5V8.25V7.5V6.75V6V5.25V4.5V3.75H59.25H60H60.75H61.5H62.25H63H63.75V4.5V5.25H63H62.25H61.5H60.75H60V6H60.75H61.5H62.25V6.75H61.5H60.75H60V7.5H60.75H61.5H62.25H63H63.75V8.25V9H63Z" fill="#DCFF2D"/>
<path d="M0.75 8H0V7.25V6.5V5.75V5V4.25V3.5V2.75H0.75H1.5H2.25H3H3.75H4.5V3.5H5.25V4.25V5V5.75H4.5V6.5H3.75H3H2.25H1.5V7.25V8H0.75ZM3 5H3.75V4.25H3H2.25H1.5V5H2.25H3ZM6.75 8H6V7.25V6.5V5.75V5V4.25V3.5V2.75H6.75H7.5V3.5V4.25V5V5.75V6.5V7.25V8H6.75ZM12.75 8H12V7.25H11.25V6.5H10.5V7.25H9.75V8H9H8.25V7.25V6.5H9V5.75H9.75V5H9V4.25H8.25V3.5V2.75H9H9.75V3.5H10.5V4.25H11.25V3.5H12V2.75H12.75H13.5V3.5V4.25H12.75V5H12V5.75H12.75V6.5H13.5V7.25V8H12.75ZM18.75 8H18H17.25H16.5H15.75H15H14.25V7.25V6.5V5.75V5V4.25V3.5V2.75H15H15.75H16.5H17.25H18H18.75H19.5V3.5V4.25H18.75H18H17.25H16.5H15.75V5H16.5H17.25H18V5.75H17.25H16.5H15.75V6.5H16.5H17.25H18H18.75H19.5V7.25V8H18.75ZM24.75 8H24H23.25H22.5H21.75H21H20.25V7.25V6.5V5.75V5V4.25V3.5V2.75H21H21.75V3.5V4.25V5V5.75V6.5H22.5H23.25H24H24.75H25.5V7.25V8H24.75ZM30.75 8H30V7.25V6.5V5.75V5V4.25V3.5V2.75H30.75H31.5H32.25H33H33.75H34.5V3.5H35.25V4.25V5V5.75H34.5V6.5H33.75H33H32.25H31.5V7.25V8H30.75ZM33 5H33.75V4.25H33H32.25H31.5V5H32.25H33ZM40.5 8H39.75V7.25V6.5H39H38.25H37.5V7.25V8H36.75H36V7.25V6.5V5.75V5V4.25V3.5V2.75H36.75H37.5H38.25H39H39.75H40.5V3.5H41.25V4.25V5V5.75H40.5V6.5H41.25V7.25V8H40.5ZM39 5H39.75V4.25H39H38.25H37.5V5H38.25H39ZM46.5 8H45.75V7.25V6.5H45H44.25H43.5V7.25V8H42.75H42V7.25V6.5V5.75V5V4.25V3.5H42.75V2.75H43.5H44.25H45H45.75H46.5V3.5H47.25V4.25V5V5.75V6.5V7.25V8H46.5ZM45 5H45.75V4.25H45H44.25H43.5V5H44.25H45ZM48.75 8H48V7.25V6.5V5.75V5V4.25V3.5V2.75H48.75H49.5V3.5V4.25V5V5.75V6.5V7.25V8H48.75ZM54.75 8H54V7.25V6.5H53.25H52.5H51.75V7.25V8H51H50.25V7.25V6.5V5.75V5V4.25V3.5V2.75H51H51.75H52.5H53.25H54H54.75V3.5H55.5V4.25V5V5.75H54.75V6.5H55.5V7.25V8H54.75ZM53.25 5H54V4.25H53.25H52.5H51.75V5H52.5H53.25ZM57 8H56.25V7.25V6.5V5.75V5V4.25V3.5V2.75H57H57.75V3.5V4.25V5V5.75V6.5V7.25V8H57ZM63 8H62.25H61.5H60.75H60H59.25H58.5V7.25V6.5V5.75V5V4.25V3.5V2.75H59.25H60H60.75H61.5H62.25H63H63.75V3.5V4.25H63H62.25H61.5H60.75H60V5H60.75H61.5H62.25V5.75H61.5H60.75H60V6.5H60.75H61.5H62.25H63H63.75V7.25V8H63Z" fill="#6CB15C"/>
</svg>
